<?xml version="1.0" encoding="UTF-8" standalone="no"?>
<!DOCTYPE svg PUBLIC "-//W3C//DTD SVG 1.1//EN"
 "http://www.w3.org/Graphics/SVG/1.1/DTD/svg11.dtd">
<!-- Generated by graphviz version 2.40.1 (20161225.0304)
 -->
<!-- Title: %3 Pages: 1 -->
<svg width="238pt" height="131pt"
 viewBox="0.00 0.00 238.00 131.00" xmlns="http://www.w3.org/2000/svg" xmlns:xlink="http://www.w3.org/1999/xlink">
<g id="graph0" class="graph" transform="scale(1 1) rotate(0) translate(4 127)">
<title>%3</title>
<polygon fill="#ffffff" stroke="transparent" points="-4,4 -4,-127 234,-127 234,4 -4,4"/>
<!-- a -->
<g id="node1" class="node">
<title>a</title>
<ellipse fill="none" stroke="#000000" cx="131" cy="-90" rx="27" ry="18"/>
<text text-anchor="middle" x="131" y="-86.3" font-family="Times,serif" font-size="14.00" fill="#000000">a</text>
<text text-anchor="middle" x="93" y="-111.8" font-family="Times,serif" font-size="14.00" fill="#000000">p(a)</text>
</g>
<!-- b -->
<g id="node2" class="node">
<title>b</title>
<ellipse fill="none" stroke="#000000" cx="59" cy="-18" rx="27" ry="18"/>
<text text-anchor="middle" x="59" y="-14.3" font-family="Times,serif" font-size="14.00" fill="#000000">b</text>
<text text-anchor="middle" x="16" y="-39.8" font-family="Times,serif" font-size="14.00" fill="#000000">p(b|a)</text>
</g>
<!-- a&#45;&gt;b -->
<g id="edge1" class="edge">
<title>a&#45;&gt;b</title>
<path fill="none" stroke="#000000" d="M115.7307,-74.7307C105.803,-64.803 92.6847,-51.6847 81.5637,-40.5637"/>
<polygon fill="#000000" stroke="#000000" points="83.7933,-37.8436 74.2473,-33.2473 78.8436,-42.7933 83.7933,-37.8436"/>
</g>
<!-- c -->
<g id="node3" class="node">
<title>c</title>
<ellipse fill="none" stroke="#000000" cx="131" cy="-18" rx="27" ry="18"/>
<text text-anchor="middle" x="131" y="-14.3" font-family="Times,serif" font-size="14.00" fill="#000000">c</text>
<text text-anchor="middle" x="83" y="-39.8" font-family="Times,serif" font-size="14.00" fill="#000000">p(c|a,b)</text>
</g>
<!-- a&#45;&gt;c -->
<g id="edge2" class="edge">
<title>a&#45;&gt;c</title>
<path fill="none" stroke="#000000" d="M131,-71.8314C131,-64.131 131,-54.9743 131,-46.4166"/>
<polygon fill="#000000" stroke="#000000" points="134.5001,-46.4132 131,-36.4133 127.5001,-46.4133 134.5001,-46.4132"/>
</g>
<!-- d -->
<g id="node4" class="node">
<title>d</title>
<ellipse fill="none" stroke="#000000" cx="203" cy="-18" rx="27" ry="18"/>
<text text-anchor="middle" x="203" y="-14.3" font-family="Times,serif" font-size="14.00" fill="#000000">d</text>
<text text-anchor="middle" x="155" y="-39.8" font-family="Times,serif" font-size="14.00" fill="#000000">p(c|a,b)</text>
</g>
<!-- a&#45;&gt;d -->
<g id="edge3" class="edge">
<title>a&#45;&gt;d</title>
<path fill="none" stroke="#000000" d="M146.2693,-74.7307C156.197,-64.803 169.3153,-51.6847 180.4363,-40.5637"/>
<polygon fill="#000000" stroke="#000000" points="183.1564,-42.7933 187.7527,-33.2473 178.2067,-37.8436 183.1564,-42.7933"/>
</g>
</g>
</svg>
