<?xml version="1.0" encoding="UTF-8" standalone="no"?>
<!DOCTYPE svg PUBLIC "-//W3C//DTD SVG 1.1//EN"
 "http://www.w3.org/Graphics/SVG/1.1/DTD/svg11.dtd">
<!-- Generated by graphviz version 2.40.1 (20161225.0304)
 -->
<!-- Title: %3 Pages: 1 -->
<svg width="121pt" height="203pt"
 viewBox="0.00 0.00 121.00 203.00" xmlns="http://www.w3.org/2000/svg" xmlns:xlink="http://www.w3.org/1999/xlink">
<g id="graph0" class="graph" transform="scale(1 1) rotate(0) translate(4 199)">
<title>%3</title>
<polygon fill="#ffffff" stroke="transparent" points="-4,4 -4,-199 117,-199 117,4 -4,4"/>
<!-- a -->
<g id="node1" class="node">
<title>a</title>
<ellipse fill="none" stroke="#000000" cx="86" cy="-162" rx="27" ry="18"/>
<text text-anchor="middle" x="86" y="-158.3" font-family="Times,serif" font-size="14.00" fill="#000000">a</text>
<text text-anchor="middle" x="48" y="-183.8" font-family="Times,serif" font-size="14.00" fill="#000000">p(a)</text>
</g>
<!-- b -->
<g id="node2" class="node">
<title>b</title>
<ellipse fill="none" stroke="#000000" cx="59" cy="-90" rx="27" ry="18"/>
<text text-anchor="middle" x="59" y="-86.3" font-family="Times,serif" font-size="14.00" fill="#000000">b</text>
<text text-anchor="middle" x="16" y="-111.8" font-family="Times,serif" font-size="14.00" fill="#000000">p(b|a)</text>
</g>
<!-- a&#45;&gt;b -->
<g id="edge1" class="edge">
<title>a&#45;&gt;b</title>
<path fill="none" stroke="#000000" d="M79.3258,-144.2022C76.2524,-136.0064 72.5384,-126.1024 69.1305,-117.0145"/>
<polygon fill="#000000" stroke="#000000" points="72.3858,-115.7274 65.5974,-107.593 65.8315,-118.1853 72.3858,-115.7274"/>
</g>
<!-- c -->
<g id="node3" class="node">
<title>c</title>
<ellipse fill="none" stroke="#000000" cx="86" cy="-18" rx="27" ry="18"/>
<text text-anchor="middle" x="86" y="-14.3" font-family="Times,serif" font-size="14.00" fill="#000000">c</text>
<text text-anchor="middle" x="38" y="-39.8" font-family="Times,serif" font-size="14.00" fill="#000000">p(c|a,b)</text>
</g>
<!-- a&#45;&gt;c -->
<g id="edge3" class="edge">
<title>a&#45;&gt;c</title>
<path fill="none" stroke="#000000" d="M89.7474,-144.0931C91.7466,-133.6241 93.9966,-120.1241 95,-108 96.3197,-92.0545 96.3197,-87.9455 95,-72 94.2945,-63.4753 92.9727,-54.2703 91.5551,-45.917"/>
<polygon fill="#000000" stroke="#000000" points="94.9689,-45.1258 89.7474,-35.9069 88.0803,-46.3698 94.9689,-45.1258"/>
</g>
<!-- b&#45;&gt;c -->
<g id="edge2" class="edge">
<title>b&#45;&gt;c</title>
<path fill="none" stroke="#000000" d="M65.6742,-72.2022C68.7476,-64.0064 72.4616,-54.1024 75.8695,-45.0145"/>
<polygon fill="#000000" stroke="#000000" points="79.1685,-46.1853 79.4026,-35.593 72.6142,-43.7274 79.1685,-46.1853"/>
</g>
</g>
</svg>
