<?xml version="1.0" encoding="UTF-8" standalone="no"?>
<!DOCTYPE svg PUBLIC "-//W3C//DTD SVG 1.1//EN"
 "http://www.w3.org/Graphics/SVG/1.1/DTD/svg11.dtd">
<!-- Generated by graphviz version 2.40.1 (20161225.0304)
 -->
<!-- Title: %3 Pages: 1 -->
<svg width="332pt" height="67pt"
 viewBox="0.00 0.00 332.00 67.00" xmlns="http://www.w3.org/2000/svg" xmlns:xlink="http://www.w3.org/1999/xlink">
<g id="graph0" class="graph" transform="scale(1 1) rotate(0) translate(4 63)">
<title>%3</title>
<polygon fill="#ffffff" stroke="transparent" points="-4,4 -4,-63 328,-63 328,4 -4,4"/>
<!-- a -->
<g id="node1" class="node">
<title>a</title>
<ellipse fill="none" stroke="#000000" cx="27" cy="-18" rx="27" ry="18"/>
<text text-anchor="middle" x="27" y="-14.3" font-family="Times,serif" font-size="14.00" fill="#000000">a</text>
</g>
<!-- c -->
<g id="node2" class="node">
<title>c</title>
<ellipse fill="none" stroke="#000000" cx="117" cy="-18" rx="27" ry="18"/>
<text text-anchor="middle" x="117" y="-14.3" font-family="Times,serif" font-size="14.00" fill="#000000">c</text>
</g>
<!-- a&#45;&gt;c -->
<g id="edge1" class="edge">
<title>a&#45;&gt;c</title>
<path fill="none" stroke="#000000" d="M52.5497,-11.8449C61.4801,-11.2634 71.6762,-11.1082 81.2822,-11.3793"/>
<polygon fill="#000000" stroke="#000000" points="81.2372,-14.8808 91.3865,-11.8408 81.5566,-7.8881 81.2372,-14.8808"/>
</g>
<!-- c&#45;&gt;a -->
<g id="edge5" class="edge">
<title>c&#45;&gt;a</title>
<path fill="none" stroke="#000000" d="M91.3865,-24.1592C82.45,-24.7387 72.2523,-24.8919 62.6491,-24.6188"/>
<polygon fill="#000000" stroke="#000000" points="62.6997,-21.1175 52.5497,-24.1551 62.3786,-28.1101 62.6997,-21.1175"/>
</g>
<!-- d -->
<g id="node4" class="node">
<title>d</title>
<ellipse fill="none" stroke="#000000" cx="207" cy="-41" rx="27" ry="18"/>
<text text-anchor="middle" x="207" y="-37.3" font-family="Times,serif" font-size="14.00" fill="#000000">d</text>
</g>
<!-- c&#45;&gt;d -->
<g id="edge3" class="edge">
<title>c&#45;&gt;d</title>
<path fill="none" stroke="#000000" d="M142.5497,-24.5294C151.6523,-26.8556 162.0697,-29.5178 171.8371,-32.0139"/>
<polygon fill="#000000" stroke="#000000" points="171.1427,-35.4489 181.698,-34.5339 172.876,-28.6668 171.1427,-35.4489"/>
</g>
<!-- b -->
<g id="node3" class="node">
<title>b</title>
<ellipse fill="none" stroke="#000000" cx="297" cy="-18" rx="27" ry="18"/>
<text text-anchor="middle" x="297" y="-14.3" font-family="Times,serif" font-size="14.00" fill="#000000">b</text>
</g>
<!-- b&#45;&gt;c -->
<g id="edge2" class="edge">
<title>b&#45;&gt;c</title>
<path fill="none" stroke="#000000" d="M270.0394,-15.9113C258.8915,-15.1457 245.8303,-14.3752 234,-14 210.0121,-13.2392 203.9879,-13.2392 180,-14 171.5894,-14.2667 162.5567,-14.7333 154.0316,-15.2558"/>
<polygon fill="#000000" stroke="#000000" points="153.7122,-11.7691 143.9606,-15.9113 154.1669,-18.7543 153.7122,-11.7691"/>
</g>
<!-- d&#45;&gt;b -->
<g id="edge4" class="edge">
<title>d&#45;&gt;b</title>
<path fill="none" stroke="#000000" d="M232.5497,-34.4706C241.6523,-32.1444 252.0697,-29.4822 261.8371,-26.9861"/>
<polygon fill="#000000" stroke="#000000" points="262.876,-30.3332 271.698,-24.4661 261.1427,-23.5511 262.876,-30.3332"/>
</g>
</g>
</svg>
