<?xml version="1.0" encoding="UTF-8" standalone="no"?>
<!DOCTYPE svg PUBLIC "-//W3C//DTD SVG 1.1//EN"
 "http://www.w3.org/Graphics/SVG/1.1/DTD/svg11.dtd">
<!-- Generated by graphviz version 2.40.1 (20161225.0304)
 -->
<!-- Title: %3 Pages: 1 -->
<svg width="332pt" height="90pt"
 viewBox="0.00 0.00 332.00 90.00" xmlns="http://www.w3.org/2000/svg" xmlns:xlink="http://www.w3.org/1999/xlink">
<g id="graph0" class="graph" transform="scale(1 1) rotate(0) translate(4 86)">
<title>%3</title>
<polygon fill="#ffffff" stroke="transparent" points="-4,4 -4,-86 328,-86 328,4 -4,4"/>
<!-- a -->
<g id="node1" class="node">
<title>a</title>
<ellipse fill="none" stroke="#000000" cx="27" cy="-41" rx="27" ry="18"/>
<text text-anchor="middle" x="27" y="-37.3" font-family="Times,serif" font-size="14.00" fill="#000000">a</text>
</g>
<!-- b -->
<g id="node2" class="node">
<title>b</title>
<ellipse fill="none" stroke="#000000" cx="117" cy="-18" rx="27" ry="18"/>
<text text-anchor="middle" x="117" y="-14.3" font-family="Times,serif" font-size="14.00" fill="#000000">b</text>
</g>
<!-- a&#45;&#45;b -->
<g id="edge1" class="edge">
<title>a&#45;&#45;b</title>
<path fill="none" stroke="#000000" d="M52.5497,-34.4706C64.8142,-31.3364 79.4658,-27.5921 91.698,-24.4661"/>
</g>
<!-- c -->
<g id="node3" class="node">
<title>c</title>
<ellipse fill="none" stroke="#000000" cx="207" cy="-64" rx="27" ry="18"/>
<text text-anchor="middle" x="207" y="-60.3" font-family="Times,serif" font-size="14.00" fill="#000000">c</text>
</g>
<!-- b&#45;&#45;c -->
<g id="edge2" class="edge">
<title>b&#45;&#45;c</title>
<path fill="none" stroke="#000000" d="M138.7865,-29.1353C152.9367,-36.3677 171.304,-45.7554 185.4141,-52.9672"/>
</g>
<!-- c&#45;&#45;a -->
<g id="edge5" class="edge">
<title>c&#45;&#45;a</title>
<path fill="none" stroke="#000000" d="M180.3314,-60.5923C146.247,-56.2371 87.5916,-48.7423 53.5596,-44.3937"/>
</g>
<!-- d -->
<g id="node4" class="node">
<title>d</title>
<ellipse fill="none" stroke="#000000" cx="297" cy="-41" rx="27" ry="18"/>
<text text-anchor="middle" x="297" y="-37.3" font-family="Times,serif" font-size="14.00" fill="#000000">d</text>
</g>
<!-- c&#45;&#45;d -->
<g id="edge3" class="edge">
<title>c&#45;&#45;d</title>
<path fill="none" stroke="#000000" d="M232.5497,-57.4706C244.8142,-54.3364 259.4658,-50.5921 271.698,-47.4661"/>
</g>
<!-- d&#45;&#45;b -->
<g id="edge4" class="edge">
<title>d&#45;&#45;b</title>
<path fill="none" stroke="#000000" d="M270.3314,-37.5923C236.247,-33.2371 177.5916,-25.7423 143.5596,-21.3937"/>
</g>
</g>
</svg>
