<?xml version="1.0" encoding="UTF-8" standalone="no"?>
<!DOCTYPE svg PUBLIC "-//W3C//DTD SVG 1.1//EN"
 "http://www.w3.org/Graphics/SVG/1.1/DTD/svg11.dtd">
<!-- Generated by graphviz version 2.40.1 (20161225.0304)
 -->
<!-- Title: %3 Pages: 1 -->
<svg width="242pt" height="98pt"
 viewBox="0.00 0.00 242.00 98.00" xmlns="http://www.w3.org/2000/svg" xmlns:xlink="http://www.w3.org/1999/xlink">
<g id="graph0" class="graph" transform="scale(1 1) rotate(0) translate(4 94)">
<title>%3</title>
<polygon fill="#ffffff" stroke="transparent" points="-4,4 -4,-94 238,-94 238,4 -4,4"/>
<!-- c -->
<g id="node1" class="node">
<title>c</title>
<ellipse fill="none" stroke="#000000" cx="27" cy="-45" rx="27" ry="18"/>
<text text-anchor="middle" x="27" y="-41.3" font-family="Times,serif" font-size="14.00" fill="#000000">c</text>
</g>
<!-- a -->
<g id="node2" class="node">
<title>a</title>
<ellipse fill="none" stroke="#000000" cx="117" cy="-72" rx="27" ry="18"/>
<text text-anchor="middle" x="117" y="-68.3" font-family="Times,serif" font-size="14.00" fill="#000000">a</text>
</g>
<!-- c&#45;&#45;a -->
<g id="edge1" class="edge">
<title>c&#45;&#45;a</title>
<path fill="none" stroke="#000000" d="M52.07,-52.521C64.657,-56.2971 79.8509,-60.8553 92.3755,-64.6126"/>
</g>
<!-- d -->
<g id="node3" class="node">
<title>d</title>
<ellipse fill="none" stroke="#000000" cx="117" cy="-18" rx="27" ry="18"/>
<text text-anchor="middle" x="117" y="-14.3" font-family="Times,serif" font-size="14.00" fill="#000000">d</text>
</g>
<!-- c&#45;&#45;d -->
<g id="edge2" class="edge">
<title>c&#45;&#45;d</title>
<path fill="none" stroke="#000000" d="M52.07,-37.479C64.657,-33.7029 79.8509,-29.1447 92.3755,-25.3874"/>
</g>
<!-- b -->
<g id="node4" class="node">
<title>b</title>
<ellipse fill="none" stroke="#000000" cx="207" cy="-18" rx="27" ry="18"/>
<text text-anchor="middle" x="207" y="-14.3" font-family="Times,serif" font-size="14.00" fill="#000000">b</text>
</g>
<!-- d&#45;&#45;b -->
<g id="edge3" class="edge">
<title>d&#45;&#45;b</title>
<path fill="none" stroke="#000000" d="M144.003,-18C155.2905,-18 168.3867,-18 179.705,-18"/>
</g>
</g>
</svg>
